<svg id="Слой_1" data-name="Слой 1" xmlns="http://www.w3.org/2000/svg" viewBox="0 0 500 200"><defs><style>.cls-1,.cls-2{fill:none;stroke:#000;stroke-miterlimit:10;}.cls-1{stroke-width:0.75px;}.cls-2{stroke-width:0.5px;}</style></defs><title>Монтажная область 1</title><path d="M104.5,69.67,88.64,128.6a1.14,1.14,0,0,1-1.21.87H83.79a1.16,1.16,0,0,1-1.21-1L69.84,78.25,68.1,71.57H66l-1.73,6.67L51.55,128.51a1.16,1.16,0,0,1-1.21,1H46.7a1.14,1.14,0,0,1-1.21-.87L29.63,69.67h2.25l13.87,51.91,1.56,6h2.43l1.47-5.89,13-51a1.16,1.16,0,0,1,1.21-1h3.29a1.16,1.16,0,0,1,1.21,1l13,51q.26,1,.74,2.95t.74,3h2.43l1.56-5.89,13.86-52Z"/><path d="M113.78,90.21l-.26-1.56a153.12,153.12,0,0,1,19.85-1.82q11.52,0,11.53,11.61v31h-1.56l-.43-8.06a30.25,30.25,0,0,1-8.84,5.85A26.59,26.59,0,0,1,122.7,130q-5.2,0-8-2.73t-2.82-7.75v-5.37q0-4.68,2.6-7.24t7.37-2.56h21V98.44q0-9.62-9.53-9.62A156.87,156.87,0,0,0,113.78,90.21Zm.26,23.92v5.37q0,8.23,8.67,8.41a25.39,25.39,0,0,0,10.57-2.47,32.82,32.82,0,0,0,9.53-6.11V106.07l-21,.35Q114,106.59,114,114.13Z"/><path d="M165.34,89.77v31.37q0,6.93,6.93,6.93h7.63l.26,1.39a49.64,49.64,0,0,1-7.37.52q-9.54,0-9.53-8.75V89.77h-7.54V88.3l7.54-.43V74.78h2.08V87.87h15.43v1.91Z"/><path d="M220.11,127.47l.35,1.56a56.83,56.83,0,0,1-12.57,1.47q-10.4,0-14.73-4.94t-4.33-16.9q0-12,4.29-16.9t14.69-4.94a40.09,40.09,0,0,1,11.7,1.47L219,89.86a45.4,45.4,0,0,0-10.83-1q-9.53,0-13.34,4.25T191,108.67q0,11.35,3.81,15.6t13.34,4.25A60.57,60.57,0,0,0,220.11,127.47Z"/><path d="M234.67,68.8V87.43a58.52,58.52,0,0,1-.43,8.06q11.61-8.66,20.28-8.67,11.18,0,11.18,11.35v31.28h-2.08v-31q0-9.62-9.53-9.62a21.05,21.05,0,0,0-8.8,2,71.26,71.26,0,0,0-10.79,6.5v32.15h-2.08V68.8Z"/><path d="M303.73,101.21l-13.26-1.82q-6.24-.69-8.93-4.33t-2.69-11a28.94,28.94,0,0,1,1-8.45,8,8,0,0,1,3.55-4.68A14.34,14.34,0,0,1,288.83,69a56.61,56.61,0,0,1,8.06-.3q8.4.17,16.21,1l-.26,1.65q-10.4-.69-15.95-.69-3.38,0-5.07.09a32.68,32.68,0,0,0-3.9.48,7,7,0,0,0-3.21,1.21,10.88,10.88,0,0,0-2,2.3,9,9,0,0,0-1.34,3.73,37.3,37.3,0,0,0-.35,5.55q0,6.59,2.17,9.58t7.28,3.68l13.26,1.82q6.59.78,9.32,4.33t2.73,11.35a26.2,26.2,0,0,1-.82,7.06,13.14,13.14,0,0,1-2.17,4.59A8.19,8.19,0,0,1,309,129a21.73,21.73,0,0,1-4.94,1.13,63.71,63.71,0,0,1-6.46.26,152.75,152.75,0,0,1-17.68-1l.26-1.65q9,.69,17.51.61a55.59,55.59,0,0,0,7.45-.52,11.55,11.55,0,0,0,4.77-1.86,7.46,7.46,0,0,0,2.9-4.12,25,25,0,0,0,.82-7.11q0-7-2.21-10T303.73,101.21Z"/><path d="M333.72,89.77v31.37q0,6.93,6.93,6.93h7.63l.26,1.39a49.64,49.64,0,0,1-7.37.52q-9.54,0-9.53-8.75V89.77H324.1V88.3l7.54-.43V74.78h2.08V87.87h15.43v1.91Z"/><path d="M361.36,91.72q4.07-4.9,14.13-4.9t14.13,4.9q4.07,4.9,4.07,16.94t-4.07,16.94q-4.07,4.9-14.13,4.9t-14.13-4.9q-4.07-4.89-4.07-16.94T361.36,91.72ZM388,93.15q-3.55-4.33-12.48-4.33T363,93.15q-3.55,4.33-3.55,15.51T363,124.18q3.55,4.34,12.48,4.33T388,124.18q3.55-4.33,3.55-15.51T388,93.15Z"/><path d="M430.95,86.83l-.43,2H429a19.56,19.56,0,0,0-8.45,2,74,74,0,0,0-10.53,6.5v32.15H408V87.87h1.56l.26,7.63q11-8.66,19.5-8.67Z"/><path d="M462.06,109.79H438.92q.26,10.31,4.16,14.52t12.48,4.2a87.87,87.87,0,0,0,14.13-1.13l.35,1.56q-5,1.56-14.73,1.56-9.88,0-14.21-5.07t-4.33-16.94q0-11.87,4.07-16.77t13.78-4.9q16.12,0,16.38,11.79.17,5.72-1.91,8.45T462.06,109.79Zm-23.14-1.91h23.14q3.72,0,5.33-2.25t1.43-6.85q-.09-5.11-3.6-7.54t-10.53-2.43q-8.58,0-12.13,4.29T438.92,107.89Z"/><circle cx="375.37" cy="109.56" r="1.44"/><line class="cls-1" x1="375.37" y1="109.56" x2="384.75" y2="109.56"/><line class="cls-1" x1="375.79" y1="110.37" x2="370.31" y2="95.83"/><line class="cls-2" x1="375.37" y1="90.78" x2="375.37" y2="93.67"/><line class="cls-2" x1="376.09" y1="124" x2="376.09" y2="126.89"/><line class="cls-2" x1="387.64" y1="109.56" x2="390.53" y2="109.56"/><line class="cls-2" x1="360.2" y1="109.56" x2="363.09" y2="109.56"/><line class="cls-2" x1="362.79" y1="94.81" x2="364.83" y2="96.86"/><line class="cls-2" x1="385.9" y1="120.81" x2="387.94" y2="122.85"/><line class="cls-2" x1="366.28" y1="120.81" x2="364.23" y2="122.85"/><line class="cls-2" x1="387.94" y1="94.81" x2="385.9" y2="96.86"/></svg>